<?xml version="1.0" standalone="no"?>
<!DOCTYPE svg PUBLIC "-//W3C//DTD SVG 20010904//EN"
 "http://www.w3.org/TR/2001/REC-SVG-20010904/DTD/svg10.dtd">
<svg version="1.0" xmlns="http://www.w3.org/2000/svg"
 width="1001.000000pt" height="1001.000000pt" viewBox="0 0 1001.000000 1001.000000"
 preserveAspectRatio="xMidYMid meet">
<metadata>
Created by potrace 1.14, written by Peter Selinger 2001-2017
</metadata>
<g transform="translate(0.000000,1001.000000) scale(0.100000,-0.100000)"
fill="#000000" stroke="none">
<path d="M4685 10003 c-642 -44 -1278 -211 -1850 -487 -223 -108 -370 -192
-595 -342 -308 -205 -553 -407 -807 -667 -541 -555 -927 -1186 -1168 -1912
-180 -539 -257 -1015 -257 -1585 0 -570 77 -1046 257 -1585 312 -940 889
-1752 1682 -2372 135 -105 440 -308 598 -399 579 -329 1241 -540 1947 -621
241 -28 829 -25 1077 6 1337 162 2504 806 3336 1840 954 1184 1315 2730 984
4221 -377 1701 -1636 3099 -3289 3651 -414 138 -804 216 -1235 248 -128 10
-559 12 -680 4z m-2538 -3058 c702 -100 1271 -604 1453 -1287 250 -944 -318
-1905 -1271 -2148 -181 -46 -244 -50 -966 -50 l-683 0 0 1750 0 1750 683 0
c542 0 703 -3 784 -15z m5800 0 c702 -100 1271 -604 1453 -1287 250 -944 -318
-1905 -1271 -2148 -181 -46 -244 -50 -966 -50 l-683 0 0 1750 0 1750 683 0
c542 0 703 -3 784 -15z m-2017 -3760 l0 -275 -1075 0 -1075 0 0 275 0 275
1075 0 1075 0 0 -275z"/>
<path d="M1430 5210 l0 -1002 313 4 c294 5 317 6 407 30 191 51 346 143 481
286 119 126 198 267 247 444 24 90 24 386 0 476 -49 177 -128 318 -247 444
-135 143 -290 235 -481 286 -90 24 -113 25 -407 30 l-313 4 0 -1002z"/>
<path d="M7230 5210 l0 -1002 313 4 c294 5 317 6 407 30 191 51 346 143 481
286 119 126 198 267 247 444 24 90 24 386 0 476 -49 177 -128 318 -247 444
-135 143 -290 235 -481 286 -90 24 -113 25 -407 30 l-313 4 0 -1002z"/>
</g>
</svg>
